<svg xmlns="http://www.w3.org/2000/svg" xmlns:xlink="http://www.w3.org/1999/xlink" width="500" zoomAndPan="magnify" viewBox="0 0 375 374.999991" height="500" preserveAspectRatio="xMidYMid meet" version="1.0"><defs><clipPath id="id1"><path d="M 100 148.292969 L 274 148.292969 L 274 374.792969 L 100 374.792969 Z M 100 148.292969 " clip-rule="nonzero"/></clipPath></defs><g clip-path="url(#id1)"><path fill="#000000" d="M 255.839844 148.292969 L 119.011719 148.292969 C 109.046875 148.292969 100.941406 156.375 100.941406 166.3125 L 100.941406 356.777344 C 100.941406 366.71875 109.046875 374.792969 119.011719 374.792969 L 255.839844 374.792969 C 265.804688 374.792969 273.910156 366.71875 273.910156 356.777344 L 273.910156 166.3125 C 273.910156 156.382812 265.804688 148.292969 255.839844 148.292969 Z M 268.75 356.78125 C 268.75 363.882812 262.960938 369.652344 255.839844 369.652344 L 119.011719 369.652344 C 111.894531 369.652344 106.105469 363.882812 106.105469 356.78125 L 106.105469 166.316406 C 106.105469 159.222656 111.894531 153.445312 119.011719 153.445312 L 255.839844 153.445312 C 262.960938 153.445312 268.75 159.222656 268.75 166.316406 Z M 268.75 356.78125 " fill-opacity="1" fill-rule="nonzero"/></g><path fill="#000000" d="M 246.570312 258.96875 L 160.855469 258.96875 C 159.429688 258.96875 158.273438 260.125 158.273438 261.542969 C 158.273438 262.964844 159.429688 264.117188 160.855469 264.117188 L 246.570312 264.117188 C 248.003906 264.117188 249.152344 262.964844 249.152344 261.542969 C 249.152344 260.125 248.003906 258.96875 246.570312 258.96875 Z M 246.570312 258.96875 " fill-opacity="1" fill-rule="nonzero"/><path fill="#000000" d="M 246.570312 224.394531 L 160.855469 224.394531 C 159.429688 224.394531 158.273438 225.546875 158.273438 226.96875 C 158.273438 228.386719 159.429688 229.539062 160.855469 229.539062 L 246.570312 229.539062 C 248.003906 229.539062 249.152344 228.386719 249.152344 226.96875 C 249.152344 225.546875 248.003906 224.394531 246.570312 224.394531 Z M 246.570312 224.394531 " fill-opacity="1" fill-rule="nonzero"/><path fill="#000000" d="M 246.570312 293.554688 L 160.855469 293.554688 C 159.429688 293.554688 158.273438 294.710938 158.273438 296.125 C 158.273438 297.546875 159.429688 298.699219 160.855469 298.699219 L 246.570312 298.699219 C 248.003906 298.699219 249.152344 297.546875 249.152344 296.125 C 249.152344 294.707031 248.003906 293.554688 246.570312 293.554688 Z M 246.570312 293.554688 " fill-opacity="1" fill-rule="nonzero"/><path fill="#000000" d="M 246.570312 189.816406 L 160.855469 189.816406 C 159.429688 189.816406 158.273438 190.96875 158.273438 192.390625 C 158.273438 193.808594 159.429688 194.964844 160.855469 194.964844 L 246.570312 194.964844 C 248.003906 194.964844 249.152344 193.808594 249.152344 192.390625 C 249.152344 190.96875 248.003906 189.816406 246.570312 189.816406 Z M 246.570312 189.816406 " fill-opacity="1" fill-rule="nonzero"/><path fill="#000000" d="M 246.570312 328.128906 L 160.855469 328.128906 C 159.429688 328.128906 158.273438 329.289062 158.273438 330.703125 C 158.273438 332.125 159.429688 333.277344 160.855469 333.277344 L 246.570312 333.277344 C 248.003906 333.277344 249.152344 332.125 249.152344 330.703125 C 249.152344 329.285156 248.003906 328.128906 246.570312 328.128906 Z M 246.570312 328.128906 " fill-opacity="1" fill-rule="nonzero"/><path fill="#000000" d="M 134.375 206.074219 C 141.941406 206.074219 148.101562 199.9375 148.101562 192.390625 C 148.101562 190.105469 147.484375 187.976562 146.488281 186.078125 C 150.566406 182.054688 155.011719 178.402344 159.855469 175.222656 C 161.042969 174.441406 161.371094 172.84375 160.589844 171.65625 C 159.804688 170.464844 158.203125 170.144531 157.015625 170.921875 C 152.046875 174.191406 147.488281 177.945312 143.277344 182.054688 C 140.875 180 137.785156 178.707031 134.378906 178.707031 C 131.140625 178.707031 128.203125 179.878906 125.847656 181.753906 C 124.929688 180.894531 123.515625 180.78125 122.5 181.589844 C 121.386719 182.480469 121.210938 184.097656 122.105469 185.207031 L 122.492188 185.6875 C 121.355469 187.679688 120.660156 189.945312 120.660156 192.394531 C 120.648438 199.9375 126.808594 206.074219 134.375 206.074219 Z M 142.945312 192.390625 C 142.945312 197.101562 139.105469 200.925781 134.378906 200.925781 C 129.660156 200.925781 125.820312 197.09375 125.820312 192.390625 C 125.820312 191.632812 125.949219 190.90625 126.136719 190.210938 L 132.371094 197.945312 C 132.859375 198.558594 133.597656 198.90625 134.382812 198.90625 C 134.410156 198.90625 134.441406 198.90625 134.46875 198.90625 C 135.277344 198.882812 136.03125 198.480469 136.496094 197.820312 C 138.390625 195.136719 140.472656 192.625 142.628906 190.195312 C 142.804688 190.898438 142.945312 191.621094 142.945312 192.390625 Z M 139.65625 185.71875 C 137.78125 187.765625 135.972656 189.886719 134.28125 192.105469 L 129.117188 185.699219 C 130.574219 184.554688 132.386719 183.851562 134.378906 183.851562 C 136.378906 183.855469 138.199219 184.570312 139.65625 185.71875 Z M 139.65625 185.71875 " fill-opacity="1" fill-rule="nonzero"/><path fill="#000000" d="M 134.375 247.863281 C 126.804688 247.863281 120.648438 254.003906 120.648438 261.550781 C 120.648438 269.101562 126.804688 275.238281 134.375 275.238281 C 141.941406 275.238281 148.101562 269.101562 148.101562 261.550781 C 148.101562 254.003906 141.941406 247.863281 134.375 247.863281 Z M 134.375 270.085938 C 129.65625 270.085938 125.8125 266.253906 125.8125 261.542969 C 125.8125 256.835938 129.65625 253.003906 134.375 253.003906 C 139.097656 253.003906 142.941406 256.835938 142.941406 261.542969 C 142.941406 266.253906 139.097656 270.085938 134.375 270.085938 Z M 134.375 270.085938 " fill-opacity="1" fill-rule="nonzero"/><path fill="#000000" d="M 134.375 282.445312 C 126.804688 282.445312 120.648438 288.582031 120.648438 296.125 C 120.648438 303.679688 126.804688 309.816406 134.375 309.816406 C 141.941406 309.816406 148.101562 303.679688 148.101562 296.125 C 148.101562 288.582031 141.941406 282.445312 134.375 282.445312 Z M 134.375 304.660156 C 129.65625 304.660156 125.8125 300.832031 125.8125 296.125 C 125.8125 291.410156 129.65625 287.582031 134.375 287.582031 C 139.097656 287.582031 142.941406 291.410156 142.941406 296.125 C 142.941406 300.832031 139.097656 304.660156 134.375 304.660156 Z M 134.375 304.660156 " fill-opacity="1" fill-rule="nonzero"/><path fill="#000000" d="M 134.375 317.015625 C 126.804688 317.015625 120.648438 323.15625 120.648438 330.699219 C 120.648438 338.25 126.808594 344.390625 134.375 344.390625 C 141.9375 344.390625 148.101562 338.25 148.101562 330.699219 C 148.101562 323.164062 141.941406 317.015625 134.375 317.015625 Z M 134.375 339.25 C 129.65625 339.25 125.8125 335.417969 125.8125 330.703125 C 125.8125 326 129.65625 322.167969 134.375 322.167969 C 139.097656 322.167969 142.941406 326 142.941406 330.703125 C 142.941406 335.417969 139.097656 339.25 134.375 339.25 Z M 134.375 339.25 " fill-opacity="1" fill-rule="nonzero"/><path fill="#000000" d="M 159.855469 209.800781 C 161.042969 209.015625 161.371094 207.421875 160.589844 206.238281 C 159.804688 205.042969 158.203125 204.71875 157.015625 205.507812 C 152.046875 208.78125 147.488281 212.527344 143.277344 216.636719 C 140.875 214.578125 137.785156 213.285156 134.378906 213.285156 C 131.140625 213.285156 128.199219 214.457031 125.847656 216.335938 C 124.925781 215.476562 123.515625 215.363281 122.5 216.171875 C 121.386719 217.0625 121.210938 218.679688 122.105469 219.792969 L 122.492188 220.269531 C 121.355469 222.261719 120.660156 224.527344 120.660156 226.972656 C 120.660156 234.519531 126.816406 240.660156 134.382812 240.660156 C 141.953125 240.660156 148.113281 234.519531 148.113281 226.972656 C 148.113281 224.6875 147.492188 222.558594 146.496094 220.667969 C 150.566406 216.636719 155.011719 212.984375 159.855469 209.800781 Z M 139.667969 220.296875 C 137.785156 222.34375 135.980469 224.464844 134.285156 226.6875 L 129.121094 220.28125 C 130.578125 219.136719 132.390625 218.425781 134.382812 218.425781 C 136.378906 218.425781 138.199219 219.140625 139.667969 220.296875 Z M 142.945312 226.96875 C 142.945312 231.675781 139.105469 235.507812 134.378906 235.507812 C 129.660156 235.507812 125.820312 231.675781 125.820312 226.96875 C 125.820312 226.210938 125.949219 225.488281 126.136719 224.789062 L 132.371094 232.519531 C 132.859375 233.132812 133.597656 233.484375 134.382812 233.484375 C 134.410156 233.484375 134.441406 233.484375 134.46875 233.484375 C 135.277344 233.457031 136.03125 233.058594 136.496094 232.398438 C 138.390625 229.714844 140.472656 227.203125 142.628906 224.769531 C 142.804688 225.472656 142.945312 226.207031 142.945312 226.96875 Z M 142.945312 226.96875 " fill-opacity="1" fill-rule="nonzero"/></svg>